<svg xmlns="http://www.w3.org/2000/svg" xmlns:xlink="http://www.w3.org/1999/xlink" width="500" zoomAndPan="magnify" viewBox="0 0 375 374.999991" height="500" preserveAspectRatio="xMidYMid meet" version="1.0"><defs><g/><clipPath id="69d01bf1f7"><path d="M 37.5 37.5 L 337.5 37.5 L 337.5 337.5 L 37.5 337.5 Z M 37.5 37.5 " clip-rule="nonzero"/></clipPath><clipPath id="ebe56a6f92"><path d="M 187.5 37.5 C 104.65625 37.5 37.5 104.65625 37.5 187.5 C 37.5 270.34375 104.65625 337.5 187.5 337.5 C 270.34375 337.5 337.5 270.34375 337.5 187.5 C 337.5 104.65625 270.34375 37.5 187.5 37.5 " clip-rule="nonzero"/></clipPath><clipPath id="561b490bc8"><path d="M 91.289062 91.289062 L 283.710938 91.289062 L 283.710938 283.710938 L 91.289062 283.710938 Z M 91.289062 91.289062 " clip-rule="nonzero"/></clipPath><clipPath id="e0a758ed08"><path d="M 187.5 91.289062 C 134.363281 91.289062 91.289062 134.363281 91.289062 187.5 C 91.289062 240.636719 134.363281 283.710938 187.5 283.710938 C 240.636719 283.710938 283.710938 240.636719 283.710938 187.5 C 283.710938 134.363281 240.636719 91.289062 187.5 91.289062 " clip-rule="nonzero"/></clipPath><clipPath id="f1f25a545c"><path d="M 91.289062 91.289062 L 284.039062 91.289062 L 284.039062 284.039062 L 91.289062 284.039062 Z M 91.289062 91.289062 " clip-rule="nonzero"/></clipPath><clipPath id="3cad5b96d8"><path d="M 187.664062 91.289062 C 134.441406 91.289062 91.289062 134.441406 91.289062 187.664062 C 91.289062 240.890625 134.441406 284.039062 187.664062 284.039062 C 240.890625 284.039062 284.039062 240.890625 284.039062 187.664062 C 284.039062 134.441406 240.890625 91.289062 187.664062 91.289062 " clip-rule="nonzero"/></clipPath><clipPath id="1a5a59e097"><path d="M 105.796875 105.796875 L 269.257812 105.796875 L 269.257812 269.257812 L 105.796875 269.257812 Z M 105.796875 105.796875 " clip-rule="nonzero"/></clipPath><clipPath id="13abc3ca5c"><path d="M 187.5 105.796875 C 142.375 105.796875 105.796875 142.375 105.796875 187.5 C 105.796875 232.625 142.375 269.203125 187.5 269.203125 C 232.625 269.203125 269.203125 232.625 269.203125 187.5 C 269.203125 142.375 232.625 105.796875 187.5 105.796875 " clip-rule="nonzero"/></clipPath><clipPath id="de8a1c7cbe"><path d="M 105.796875 105.796875 L 269.007812 105.796875 L 269.007812 269.007812 L 105.796875 269.007812 Z M 105.796875 105.796875 " clip-rule="nonzero"/></clipPath><clipPath id="818cfc1cda"><path d="M 187.402344 105.796875 C 142.332031 105.796875 105.796875 142.332031 105.796875 187.402344 C 105.796875 232.472656 142.332031 269.007812 187.402344 269.007812 C 232.472656 269.007812 269.007812 232.472656 269.007812 187.402344 C 269.007812 142.332031 232.472656 105.796875 187.402344 105.796875 " clip-rule="nonzero"/></clipPath><clipPath id="c2c275b38c"><path d="M 88 89 L 286 89 L 286 286 L 88 286 Z M 88 89 " clip-rule="nonzero"/></clipPath><clipPath id="01a77ef811"><path d="M 55.074219 187.742188 L 187.632812 55.183594 L 319.726562 187.277344 L 187.171875 319.835938 Z M 55.074219 187.742188 " clip-rule="nonzero"/></clipPath><clipPath id="180ddc06b9"><path d="M 55.074219 187.742188 L 187.632812 55.183594 L 319.726562 187.277344 L 187.171875 319.835938 Z M 55.074219 187.742188 " clip-rule="nonzero"/></clipPath><clipPath id="ff262edf27"><path d="M 55.074219 187.742188 L 187.632812 55.183594 L 319.726562 187.277344 L 187.171875 319.835938 Z M 55.074219 187.742188 " clip-rule="nonzero"/></clipPath><clipPath id="afe26b1782"><path d="M 108 120 L 266 120 L 266 255 L 108 255 Z M 108 120 " clip-rule="nonzero"/></clipPath><clipPath id="aa3cdbfdaa"><path d="M 55.074219 187.742188 L 187.632812 55.183594 L 319.726562 187.277344 L 187.171875 319.835938 Z M 55.074219 187.742188 " clip-rule="nonzero"/></clipPath><clipPath id="cd8a409bc4"><path d="M 55.074219 187.742188 L 187.632812 55.183594 L 319.726562 187.277344 L 187.171875 319.835938 Z M 55.074219 187.742188 " clip-rule="nonzero"/></clipPath><clipPath id="1e19fb971a"><path d="M 55.074219 187.742188 L 187.632812 55.183594 L 319.726562 187.277344 L 187.171875 319.835938 Z M 55.074219 187.742188 " clip-rule="nonzero"/></clipPath><clipPath id="8d0dd9fe7f"><path d="M 129 96 L 266 96 L 266 266 L 129 266 Z M 129 96 " clip-rule="nonzero"/></clipPath><clipPath id="6e945eba86"><path d="M 55.074219 187.742188 L 187.632812 55.183594 L 319.726562 187.277344 L 187.171875 319.835938 Z M 55.074219 187.742188 " clip-rule="nonzero"/></clipPath><clipPath id="a34f7968f9"><path d="M 55.074219 187.742188 L 187.632812 55.183594 L 319.726562 187.277344 L 187.171875 319.835938 Z M 55.074219 187.742188 " clip-rule="nonzero"/></clipPath><clipPath id="7236a0f4ec"><path d="M 55.074219 187.742188 L 187.632812 55.183594 L 319.726562 187.277344 L 187.171875 319.835938 Z M 55.074219 187.742188 " clip-rule="nonzero"/></clipPath><clipPath id="222cc8ece3"><path d="M 95 97 L 231 97 L 231 176 L 95 176 Z M 95 97 " clip-rule="nonzero"/></clipPath><clipPath id="b084e9ec66"><path d="M 55.074219 187.742188 L 187.632812 55.183594 L 319.726562 187.277344 L 187.171875 319.835938 Z M 55.074219 187.742188 " clip-rule="nonzero"/></clipPath><clipPath id="3e2a9521be"><path d="M 55.074219 187.742188 L 187.632812 55.183594 L 319.726562 187.277344 L 187.171875 319.835938 Z M 55.074219 187.742188 " clip-rule="nonzero"/></clipPath><clipPath id="0d5fcaa5db"><path d="M 55.074219 187.742188 L 187.632812 55.183594 L 319.726562 187.277344 L 187.171875 319.835938 Z M 55.074219 187.742188 " clip-rule="nonzero"/></clipPath><clipPath id="ff4491a93f"><path d="M 152 146 L 284 146 L 284 283 L 152 283 Z M 152 146 " clip-rule="nonzero"/></clipPath><clipPath id="b53dba0bf1"><path d="M 55.074219 187.742188 L 187.632812 55.183594 L 319.726562 187.277344 L 187.171875 319.835938 Z M 55.074219 187.742188 " clip-rule="nonzero"/></clipPath><clipPath id="dad5562bd7"><path d="M 55.074219 187.742188 L 187.632812 55.183594 L 319.726562 187.277344 L 187.171875 319.835938 Z M 55.074219 187.742188 " clip-rule="nonzero"/></clipPath><clipPath id="8a51600570"><path d="M 55.074219 187.742188 L 187.632812 55.183594 L 319.726562 187.277344 L 187.171875 319.835938 Z M 55.074219 187.742188 " clip-rule="nonzero"/></clipPath><clipPath id="da65810e43"><path d="M 60.128906 125.136719 L 316.628906 125.136719 L 316.628906 234.636719 L 60.128906 234.636719 Z M 60.128906 125.136719 " clip-rule="nonzero"/></clipPath></defs><g clip-path="url(#69d01bf1f7)"><g clip-path="url(#ebe56a6f92)"><path fill="#00b2a9" d="M 37.5 37.5 L 337.5 37.5 L 337.5 337.5 L 37.5 337.5 Z M 37.5 37.5 " fill-opacity="1" fill-rule="nonzero"/><path stroke-linecap="butt" transform="matrix(0.75, 0, 0, 0.75, 37.500002, 37.499998)" fill="none" stroke-linejoin="miter" d="M 200.00001 0.00000328333 C 89.54167 0.00000328333 -0.00000271667 89.541676 -0.00000271667 200.000016 C -0.00000271667 310.458357 89.54167 400.00003 200.00001 400.00003 C 310.458351 400.00003 400.000024 310.458357 400.000024 200.000016 C 400.000024 89.541676 310.458351 0.00000328333 200.00001 0.00000328333 " stroke="#000000" stroke-width="4" stroke-opacity="1" stroke-miterlimit="4"/></g></g><g clip-path="url(#561b490bc8)"><g clip-path="url(#e0a758ed08)"><path fill="#bc7844" d="M 91.289062 91.289062 L 283.710938 91.289062 L 283.710938 283.710938 L 91.289062 283.710938 Z M 91.289062 91.289062 " fill-opacity="1" fill-rule="nonzero"/></g></g><g clip-path="url(#f1f25a545c)"><g clip-path="url(#3cad5b96d8)"><path stroke-linecap="butt" transform="matrix(0.751325, 0, 0, 0.751325, 91.290899, 91.290894)" fill="none" stroke-linejoin="miter" d="M 128.271007 -0.0024377 C 57.427377 -0.0024377 -0.00244369 57.427383 -0.00244369 128.271013 C -0.00244369 199.114643 57.427377 256.544464 128.271007 256.544464 C 199.114637 256.544464 256.544458 199.114643 256.544458 128.271013 C 256.544458 57.427383 199.114637 -0.0024377 128.271007 -0.0024377 " stroke="#000000" stroke-width="4" stroke-opacity="1" stroke-miterlimit="4"/></g></g><g fill="#000000" fill-opacity="1"><g transform="translate(92.789192, 127.852422)"><g><path d="M -5.382812 -6.445312 C -1.761719 -3.652344 3.382812 -3.027344 8.699219 -9.355469 C 13.75 -15.367188 13.261719 -19.769531 9.476562 -22.953125 C 6.125 -25.769531 2.625 -25.359375 -1.089844 -21.820312 L -4.957031 -18.21875 C -6.464844 -16.773438 -7.859375 -16.8125 -8.988281 -17.761719 C -10.492188 -19.023438 -10.398438 -21.066406 -8.433594 -23.40625 C -6.296875 -25.949219 -4.070312 -26.25 -2.085938 -24.976562 L 1.53125 -29.28125 C -2.070312 -31.917969 -6.835938 -31.878906 -11.667969 -26.128906 C -16.210938 -20.722656 -15.910156 -16.035156 -12.445312 -13.121094 C -9.265625 -10.449219 -5.785156 -10.777344 -2.515625 -13.847656 L 1.605469 -17.632812 C 3.269531 -19.144531 4.75 -19.378906 6.195312 -18.167969 C 7.726562 -16.878906 7.9375 -15.074219 5.484375 -12.15625 C 2.933594 -9.121094 0.363281 -9.113281 -1.789062 -10.722656 Z M -5.382812 -6.445312 "/></g></g></g><g fill="#000000" fill-opacity="1"><g transform="translate(107.942969, 109.916703)"><g><path d="M 3.273438 -8.578125 L -9.726562 -24.472656 L -14.199219 -20.816406 L 1.695312 -1.386719 L 15.25 -12.476562 L 12.359375 -16.011719 Z M 3.273438 -8.578125 "/></g></g></g><g fill="#000000" fill-opacity="1"><g transform="translate(121.989126, 97.659892)"><g><path d="M 19.265625 -10.160156 L 24.375 -12.851562 L 4.851562 -30.9375 L -2.894531 -26.851562 L 1 -0.527344 L 6.109375 -3.222656 L 5.320312 -8.609375 L 15.269531 -13.855469 Z M 4.628906 -13.238281 L 2.828125 -25.390625 L 11.839844 -17.039062 Z M 4.628906 -13.238281 "/></g></g></g><g fill="#000000" fill-opacity="1"><g transform="translate(144.985793, 84.672753)"><g><path d="M 27.148438 -31.886719 L 17.6875 -29.742188 L 16.238281 -9.480469 L 6.199219 -27.140625 L -3.410156 -24.964844 L 2.136719 -0.484375 L 7.695312 -1.742188 L 2.960938 -22.652344 L 14.175781 -3.210938 L 20.652344 -4.675781 L 22.386719 -26.9375 L 27.097656 -6.136719 L 32.691406 -7.402344 Z M 27.148438 -31.886719 "/></g></g></g><g fill="#000000" fill-opacity="1"><g transform="translate(178.239768, 78.210612)"><g/></g></g><g fill="#000000" fill-opacity="1"><g transform="translate(186.391372, 77.112612)"><g><path d="M 17.019531 -23.324219 L 5.015625 -24.691406 L 2.175781 0.246094 L 14.175781 1.613281 C 22.277344 2.539062 26.628906 -2.96875 27.378906 -9.570312 C 28.128906 -16.132812 25.117188 -22.402344 17.019531 -23.324219 Z M 13.417969 -3.070312 L 8.394531 -3.640625 L 10.203125 -19.542969 L 15.230469 -18.96875 C 20.292969 -18.394531 22.0625 -15.570312 21.453125 -10.246094 C 20.851562 -4.957031 18.519531 -2.488281 13.417969 -3.070312 Z M 13.417969 -3.070312 "/></g></g></g><g fill="#000000" fill-opacity="1"><g transform="translate(211.797205, 79.829749)"><g><path d="M 5.050781 -8.195312 C 2.890625 -1.992188 5.328125 2.492188 12.421875 4.960938 C 19.515625 7.429688 24.1875 5.378906 26.332031 -0.789062 L 31.492188 -15.621094 L 26.109375 -17.492188 L 21.210938 -3.410156 C 19.609375 1.1875 17.453125 1.757812 13.960938 0.542969 C 10.464844 -0.675781 9.128906 -2.457031 10.730469 -7.058594 L 15.628906 -21.140625 L 10.210938 -23.027344 Z M 5.050781 -8.195312 "/></g></g></g><g fill="#000000" fill-opacity="1"><g transform="translate(235.203453, 87.612355)"><g><path d="M 31.125 -10.089844 L 19.941406 7.710938 C 20.269531 6.40625 20.539062 5.058594 20.71875 3.921875 L 23.261719 -15.03125 L 15.207031 -20.089844 L 1.855469 1.164062 L 6.519531 4.097656 L 17.683594 -13.675781 C 17.320312 -12.386719 17.054688 -11.039062 16.851562 -9.652344 L 14.382812 9.035156 L 22.4375 14.097656 L 35.792969 -7.160156 Z M 31.125 -10.089844 "/></g></g></g><g fill="#000000" fill-opacity="1"><g transform="translate(257.824719, 101.674887)"><g><path d="M 21.40625 0.953125 L 35.765625 0.339844 L 30.492188 -4.957031 L 15.007812 -3.757812 L 23.378906 -12.097656 L 19.332031 -16.160156 L 1.542969 1.550781 L 5.59375 5.617188 L 9.792969 1.433594 L 15.71875 1.179688 L 13.265625 13.320312 L 18.113281 18.1875 L 18.328125 17.972656 Z M 21.40625 0.953125 "/></g></g></g><g fill="#000000" fill-opacity="1"><g transform="translate(275.345217, 120.025103)"><g/></g></g><g fill="#000000" fill-opacity="1"><g transform="translate(68.014356, 250.167771)"><g><path d="M 7.339844 12.929688 C 12.054688 20.457031 16.914062 21.519531 23.34375 18.117188 L 20.195312 13.085938 C 16.703125 14.917969 13.875 14.460938 11.304688 10.359375 C 8.636719 6.097656 10.019531 2.824219 14.730469 -0.125 C 19.503906 -3.117188 23.132812 -2.804688 25.820312 1.488281 C 28.289062 5.429688 27.4375 8.058594 24.480469 10.3125 L 27.609375 15.3125 C 33.140625 11.179688 34.347656 6.273438 29.753906 -1.0625 C 24.738281 -9.070312 17.433594 -8.910156 11.539062 -5.21875 C 5.546875 -1.46875 2.324219 4.921875 7.339844 12.929688 Z M 7.339844 12.929688 "/></g></g></g><g fill="#000000" fill-opacity="1"><g transform="translate(101.525111, 293.657745)"><g><path d="M 12.054688 8.898438 C 20.046875 14.289062 26.53125 11.09375 30.398438 5.355469 C 34.199219 -0.285156 34.816406 -7.621094 26.820312 -13.007812 C 18.828125 -18.398438 12.25 -15.128906 8.425781 -9.457031 C 4.539062 -3.6875 4.058594 3.511719 12.054688 8.898438 Z M 13.410156 -6.09375 C 16.515625 -10.703125 19.625 -12.207031 24.203125 -9.121094 C 28.777344 -6.039062 28.550781 -2.589844 25.445312 2.019531 C 22.382812 6.5625 19.269531 8.066406 14.695312 4.980469 C 10.117188 1.898438 10.34375 -1.550781 13.410156 -6.09375 Z M 13.410156 -6.09375 "/></g></g></g><g fill="#000000" fill-opacity="1"><g transform="translate(150.570082, 320.489949)"><g><path d="M 36.921875 -19.886719 L 27.3125 -21.324219 L 18.597656 -2.945312 L 15.648438 -23.074219 L 5.894531 -24.535156 L 2.167969 0.324219 L 7.8125 1.171875 L 10.996094 -20.0625 L 14.390625 2.15625 L 20.972656 3.140625 L 30.679688 -17 L 27.515625 4.121094 L 33.195312 4.972656 Z M 36.921875 -19.886719 "/></g></g></g><g fill="#000000" fill-opacity="1"><g transform="translate(211.512122, 322.817558)"><g><path d="M 11.53125 -24.261719 L 10.394531 -28.652344 L -4.171875 -24.886719 L -3.035156 -20.492188 L 1.464844 -21.65625 L 5.480469 -6.140625 L 0.976562 -4.976562 L 2.121094 -0.550781 L 16.6875 -4.316406 L 15.542969 -8.742188 L 11.042969 -7.578125 L 7.03125 -23.097656 Z M 11.53125 -24.261719 "/></g></g></g><g fill="#000000" fill-opacity="1"><g transform="translate(253.709187, 307.938533)"><g><path d="M 12.394531 -8.214844 C 19.582031 -13.433594 20.304688 -18.355469 16.46875 -24.535156 L 11.667969 -21.046875 C 13.734375 -17.691406 13.46875 -14.835938 9.554688 -11.992188 C 5.488281 -9.035156 2.128906 -10.191406 -1.140625 -14.683594 C -4.449219 -19.242188 -4.386719 -22.886719 -0.289062 -25.863281 C 3.46875 -28.597656 6.152344 -27.929688 8.605469 -25.132812 L 13.375 -28.597656 C 8.871094 -33.828125 3.894531 -34.699219 -3.105469 -29.609375 C -10.75 -24.054688 -10.089844 -16.777344 -6 -11.152344 C -1.847656 -5.433594 4.75 -2.65625 12.394531 -8.214844 Z M 12.394531 -8.214844 "/></g></g></g><g fill="#000000" fill-opacity="1"><g transform="translate(294.469985, 271.536969)"><g><path d="M -6.324219 -5.542969 C -2.3125 -3.339844 2.875 -3.519531 7.15625 -10.605469 C 11.21875 -17.335938 10.050781 -21.617188 5.8125 -24.175781 C 2.058594 -26.445312 -1.339844 -25.492188 -4.464844 -21.417969 L -7.730469 -17.253906 C -9 -15.589844 -10.386719 -15.414062 -11.648438 -16.175781 C -13.332031 -17.191406 -13.558594 -19.226562 -11.976562 -21.847656 C -10.257812 -24.695312 -8.101562 -25.335938 -5.941406 -24.386719 L -3.027344 -29.207031 C -7.003906 -31.253906 -11.710938 -30.476562 -15.601562 -24.035156 C -19.253906 -17.984375 -18.230469 -13.394531 -14.347656 -11.046875 C -10.789062 -8.898438 -7.394531 -9.765625 -4.636719 -13.308594 L -1.148438 -17.695312 C 0.261719 -19.449219 1.691406 -19.910156 3.308594 -18.933594 C 5.023438 -17.898438 5.511719 -16.144531 3.535156 -12.878906 C 1.484375 -9.480469 -1.058594 -9.070312 -3.433594 -10.332031 Z M -6.324219 -5.542969 "/></g></g></g><g clip-path="url(#1a5a59e097)"><g clip-path="url(#13abc3ca5c)"><path fill="#e43c40" d="M 105.796875 105.796875 L 269.257812 105.796875 L 269.257812 269.257812 L 105.796875 269.257812 Z M 105.796875 105.796875 " fill-opacity="1" fill-rule="nonzero"/></g></g><g clip-path="url(#de8a1c7cbe)"><g clip-path="url(#818cfc1cda)"><path stroke-linecap="butt" transform="matrix(0.654692, 0, 0, 0.654692, 105.795497, 105.795492)" fill="none" stroke-linejoin="miter" d="M 124.649239 0.00211206 C 55.807219 0.00211206 0.00210518 55.807226 0.00210518 124.649246 C 0.00210518 193.491265 55.807219 249.296379 124.649239 249.296379 C 193.491258 249.296379 249.296372 193.491265 249.296372 124.649246 C 249.296372 55.807226 193.491258 0.00211206 124.649239 0.00211206 " stroke="#000000" stroke-width="4.576851" stroke-opacity="1" stroke-miterlimit="4"/></g></g><g clip-path="url(#c2c275b38c)"><g clip-path="url(#01a77ef811)"><g clip-path="url(#180ddc06b9)"><g clip-path="url(#ff262edf27)"><path stroke-linecap="butt" transform="matrix(0.459704, -0.459704, 0.459779, 0.459779, -267.565876, 90.236699)" fill="none" stroke-linejoin="miter" d="M 278.080689 655.012462 C 247.966221 593.850206 273.241471 519.812356 334.494334 489.74948 C 395.751447 459.682356 469.903228 484.919539 500.017696 546.081795 C 530.127916 607.239804 504.856915 681.281902 443.599803 711.34053 C 382.397923 741.377918 308.326866 716.229942 278.161414 655.169637 " stroke="#000000" stroke-width="4.924" stroke-opacity="1" stroke-miterlimit="4"/></g></g></g></g><g clip-path="url(#afe26b1782)"><g clip-path="url(#aa3cdbfdaa)"><g clip-path="url(#cd8a409bc4)"><g clip-path="url(#1e19fb971a)"><path stroke-linecap="butt" transform="matrix(0.459704, -0.459704, 0.459779, 0.459779, -267.565876, 90.236699)" fill="none" stroke-linejoin="miter" d="M 266.660304 588.191911 C 286.106399 540.865289 502.129278 587.367805 511.429584 612.885354 " stroke="#000000" stroke-width="4.395" stroke-opacity="1" stroke-miterlimit="4"/></g></g></g></g><g clip-path="url(#8d0dd9fe7f)"><g clip-path="url(#6e945eba86)"><g clip-path="url(#a34f7968f9)"><g clip-path="url(#7236a0f4ec)"><path stroke-linecap="butt" transform="matrix(0.459704, -0.459704, 0.459779, 0.459779, -267.565876, 90.236699)" fill="none" stroke-linejoin="miter" d="M 418.851385 479.550106 C 522.84997 516.176094 474.648976 710.830773 376.997882 722.767566 " stroke="#000000" stroke-width="4.395" stroke-opacity="1" stroke-miterlimit="4"/></g></g></g></g><g clip-path="url(#222cc8ece3)"><g clip-path="url(#b084e9ec66)"><g clip-path="url(#3e2a9521be)"><g clip-path="url(#0d5fcaa5db)"><path stroke-linecap="butt" transform="matrix(0.459704, -0.459704, 0.459779, 0.459779, -267.565876, 90.236699)" fill="none" stroke-linejoin="miter" d="M 337.676577 488.190475 C 396.864594 493.130863 435.756785 582.02386 498.751597 549.921959 " stroke="#000000" stroke-width="4.395" stroke-opacity="1" stroke-miterlimit="4"/></g></g></g></g><g clip-path="url(#ff4491a93f)"><g clip-path="url(#b53dba0bf1)"><g clip-path="url(#dad5562bd7)"><g clip-path="url(#8a51600570)"><path stroke-linecap="butt" transform="matrix(0.459704, -0.459704, 0.459779, 0.459779, -267.565876, 90.236699)" fill="none" stroke-linejoin="miter" d="M 283.149335 665.967974 C 368.122441 678.728872 480.992218 560.618345 488.610057 674.61259 " stroke="#000000" stroke-width="4.395" stroke-opacity="1" stroke-miterlimit="4"/></g></g></g></g><g clip-path="url(#da65810e43)"><path fill="#000000" d="M 308.695312 209.597656 C 305.445312 220.667969 300.476562 231.171875 294.316406 240.84375 C 289.230469 248.71875 283.445312 256.117188 276.945312 262.84375 C 276.105469 263.765625 275.167969 264.585938 274.277344 265.457031 C 273.367188 266.308594 272.484375 267.1875 271.558594 268.019531 L 268.742188 270.46875 L 267.332031 271.695312 L 265.871094 272.855469 L 262.953125 275.1875 C 261.964844 275.945312 260.945312 276.660156 259.945312 277.398438 C 257.964844 278.914062 255.859375 280.246094 253.800781 281.648438 C 253.503906 281.847656 253.191406 282.054688 252.863281 282.273438 C 252.527344 282.476562 252.179688 282.6875 251.816406 282.90625 C 251.089844 283.339844 250.304688 283.808594 249.472656 284.304688 C 247.824219 285.339844 245.875 286.316406 243.773438 287.433594 C 243.246094 287.707031 242.714844 288.003906 242.152344 288.273438 C 241.59375 288.535156 241.019531 288.800781 240.433594 289.070312 C 239.265625 289.609375 238.054688 290.171875 236.804688 290.75 C 234.242188 291.75 231.570312 292.953125 228.65625 293.886719 C 217.148438 298.058594 202.789062 300.636719 188.378906 300.695312 C 173.96875 300.636719 159.609375 298.058594 148.105469 293.886719 C 145.191406 292.953125 142.519531 291.75 139.957031 290.75 C 138.707031 290.171875 137.496094 289.609375 136.328125 289.070312 C 135.742188 288.800781 135.167969 288.535156 134.605469 288.273438 C 134.046875 288.003906 133.515625 287.707031 132.988281 287.433594 C 130.882812 286.316406 128.933594 285.339844 127.289062 284.308594 C 126.457031 283.808594 125.671875 283.339844 124.945312 282.90625 C 124.582031 282.6875 124.234375 282.476562 123.898438 282.273438 C 123.570312 282.058594 123.257812 281.847656 122.960938 281.648438 C 115.132812 276.519531 107.777344 270.691406 101.09375 264.144531 C 94.042969 257.101562 87.878906 249.210938 82.445312 240.847656 C 76.28125 231.171875 71.316406 220.667969 68.0625 209.597656 C 64.679688 198.5625 63.113281 186.980469 63.011719 175.402344 C 63.113281 163.820312 64.679688 152.238281 68.0625 141.203125 C 71.316406 130.132812 76.28125 119.632812 82.441406 109.957031 C 87.527344 102.085938 93.3125 94.6875 99.8125 87.957031 C 100.652344 87.035156 101.59375 86.214844 102.484375 85.347656 C 103.390625 84.496094 104.273438 83.613281 105.199219 82.78125 L 108.015625 80.332031 L 109.425781 79.105469 L 110.886719 77.945312 L 113.804688 75.613281 C 114.792969 74.859375 115.8125 74.144531 116.816406 73.402344 C 118.792969 71.886719 120.898438 70.554688 122.960938 69.15625 C 123.257812 68.953125 123.570312 68.746094 123.894531 68.527344 C 124.230469 68.324219 124.582031 68.117188 124.945312 67.894531 C 125.671875 67.460938 126.453125 66.992188 127.289062 66.496094 C 128.933594 65.460938 130.882812 64.488281 132.984375 63.367188 C 133.515625 63.097656 134.046875 62.796875 134.605469 62.53125 C 135.167969 62.269531 135.742188 62.003906 136.324219 61.730469 C 137.496094 61.191406 138.707031 60.632812 139.957031 60.054688 C 142.519531 59.050781 145.191406 57.847656 148.105469 56.914062 C 159.609375 52.746094 173.96875 50.164062 188.378906 50.105469 C 202.789062 50.164062 217.148438 52.746094 228.652344 56.914062 C 231.570312 57.847656 234.238281 59.050781 236.804688 60.054688 C 238.054688 60.632812 239.265625 61.191406 240.433594 61.730469 C 241.019531 62.003906 241.59375 62.269531 242.152344 62.527344 C 242.710938 62.796875 243.242188 63.097656 243.773438 63.367188 C 245.875 64.484375 247.824219 65.460938 249.472656 66.496094 C 250.304688 66.992188 251.085938 67.460938 251.8125 67.894531 C 252.175781 68.113281 252.527344 68.324219 252.863281 68.527344 C 253.1875 68.746094 253.5 68.953125 253.796875 69.152344 C 261.625 74.285156 268.980469 80.113281 275.664062 86.65625 C 282.714844 93.699219 288.878906 101.589844 294.316406 109.957031 C 300.476562 119.628906 305.445312 130.132812 308.695312 141.203125 C 312.082031 152.238281 313.644531 163.820312 313.746094 175.402344 C 313.644531 186.980469 312.082031 198.5625 308.695312 209.597656 Z M 316.628906 175.316406 L 316.625 175.304688 C 316.519531 163.480469 314.929688 151.648438 311.484375 140.367188 C 308.171875 129.046875 303.097656 118.304688 296.769531 108.441406 L 293.730469 103.867188 C 293.730469 103.867188 292.851562 102.640625 291.53125 100.796875 C 290.261719 98.914062 288.320312 96.59375 286.464844 94.210938 C 284.464844 91.945312 282.550781 89.609375 280.9375 88.015625 C 279.371094 86.378906 278.324219 85.289062 278.324219 85.289062 C 278.324219 85.289062 278.0625 85.019531 277.585938 84.5625 C 277.109375 84.101562 276.433594 83.445312 275.617188 82.660156 C 274.027344 81.042969 271.722656 79.09375 269.460938 77.089844 C 268.300781 76.128906 267.105469 75.203125 266.003906 74.316406 C 265.449219 73.875 264.914062 73.449219 264.40625 73.046875 C 263.878906 72.664062 263.382812 72.308594 262.921875 71.976562 C 261.085938 70.648438 259.863281 69.765625 259.863281 69.765625 C 259.863281 69.765625 259.59375 69.550781 259.164062 69.269531 C 258.734375 68.984375 258.167969 68.605469 257.597656 68.222656 C 256.457031 67.460938 255.320312 66.699219 255.320312 66.699219 C 255.015625 66.492188 254.695312 66.277344 254.363281 66.050781 C 254.019531 65.84375 253.664062 65.628906 253.292969 65.402344 C 252.546875 64.957031 251.75 64.476562 250.898438 63.964844 C 249.214844 62.902344 247.222656 61.902344 245.070312 60.757812 C 244.53125 60.476562 243.984375 60.171875 243.414062 59.894531 C 242.839844 59.628906 242.253906 59.355469 241.65625 59.074219 C 240.460938 58.519531 239.21875 57.949219 237.941406 57.355469 C 235.320312 56.324219 232.582031 55.097656 229.601562 54.136719 C 217.828125 49.859375 203.125 47.207031 188.378906 47.152344 C 173.636719 47.207031 158.933594 49.859375 147.15625 54.136719 C 144.175781 55.097656 141.441406 56.324219 138.820312 57.355469 C 137.539062 57.949219 136.300781 58.519531 135.105469 59.078125 C 134.507812 59.355469 133.917969 59.628906 133.34375 59.894531 C 132.773438 60.171875 132.230469 60.476562 131.6875 60.757812 C 129.535156 61.902344 127.542969 62.902344 125.863281 63.964844 C 125.011719 64.476562 124.210938 64.957031 123.464844 65.402344 C 123.097656 65.628906 122.738281 65.84375 122.394531 66.050781 C 122.0625 66.277344 121.742188 66.492188 121.441406 66.699219 C 121.441406 66.699219 120.300781 67.460938 119.160156 68.222656 C 118.59375 68.605469 118.023438 68.984375 117.597656 69.273438 C 117.164062 69.550781 116.898438 69.765625 116.898438 69.765625 C 116.898438 69.765625 115.671875 70.648438 113.835938 71.976562 C 113.378906 72.308594 112.878906 72.664062 112.355469 73.046875 C 111.847656 73.449219 111.3125 73.875 110.757812 74.316406 C 109.652344 75.203125 108.460938 76.128906 107.296875 77.089844 C 105.035156 79.09375 102.730469 81.042969 101.140625 82.660156 C 100.328125 83.445312 99.648438 84.101562 99.175781 84.5625 C 98.699219 85.019531 98.433594 85.289062 98.433594 85.289062 C 98.433594 85.289062 97.390625 86.378906 95.824219 88.015625 C 94.210938 89.609375 92.292969 91.945312 90.292969 94.210938 C 88.4375 96.59375 86.496094 98.914062 85.226562 100.796875 C 83.90625 102.640625 83.027344 103.871094 83.027344 103.871094 L 79.988281 108.441406 C 73.664062 118.304688 68.585938 129.050781 65.273438 140.367188 C 61.828125 151.648438 60.238281 163.480469 60.132812 175.308594 L 60.132812 175.316406 L 60.128906 175.402344 L 60.132812 175.484375 L 60.132812 175.496094 C 60.238281 187.320312 61.828125 199.15625 65.273438 210.4375 C 68.585938 221.753906 73.664062 232.496094 79.988281 242.363281 L 83.03125 246.933594 C 83.03125 246.933594 83.910156 248.164062 85.226562 250.007812 C 86.496094 251.890625 88.4375 254.207031 90.292969 256.59375 C 92.292969 258.855469 94.210938 261.195312 95.824219 262.789062 C 97.390625 264.421875 98.433594 265.511719 98.433594 265.511719 C 98.433594 265.511719 98.699219 265.78125 99.175781 266.242188 C 99.648438 266.699219 100.328125 267.355469 101.140625 268.140625 C 102.730469 269.761719 105.035156 271.710938 107.296875 273.710938 C 108.460938 274.675781 109.652344 275.597656 110.757812 276.484375 C 111.3125 276.925781 111.847656 277.351562 112.355469 277.757812 C 112.878906 278.136719 113.378906 278.496094 113.835938 278.824219 C 115.671875 280.152344 116.898438 281.035156 116.898438 281.035156 C 116.898438 281.035156 117.164062 281.253906 117.597656 281.53125 C 118.023438 281.816406 118.59375 282.199219 119.160156 282.578125 C 120.300781 283.34375 121.441406 284.105469 121.441406 284.105469 C 121.746094 284.308594 122.0625 284.527344 122.394531 284.75 C 122.738281 284.957031 123.097656 285.171875 123.46875 285.398438 C 124.210938 285.84375 125.011719 286.324219 125.863281 286.835938 C 127.546875 287.898438 129.539062 288.898438 131.6875 290.046875 C 132.230469 290.324219 132.773438 290.632812 133.34375 290.90625 C 133.921875 291.175781 134.507812 291.449219 135.105469 291.726562 C 136.300781 292.28125 137.539062 292.855469 138.820312 293.449219 C 141.441406 294.476562 144.175781 295.707031 147.160156 296.667969 C 158.933594 300.941406 173.636719 303.59375 188.378906 303.652344 C 203.125 303.59375 217.828125 300.941406 229.601562 296.664062 C 232.582031 295.707031 235.320312 294.476562 237.941406 293.445312 C 239.21875 292.855469 240.460938 292.28125 241.65625 291.726562 C 242.253906 291.445312 242.839844 291.171875 243.414062 290.90625 C 243.988281 290.632812 244.53125 290.324219 245.070312 290.046875 C 247.222656 288.898438 249.214844 287.898438 250.898438 286.835938 C 251.75 286.324219 252.546875 285.84375 253.292969 285.398438 C 253.664062 285.171875 254.023438 284.957031 254.363281 284.75 C 254.699219 284.523438 255.015625 284.308594 255.320312 284.105469 C 255.320312 284.105469 256.457031 283.34375 257.597656 282.578125 C 258.167969 282.199219 258.738281 281.816406 259.164062 281.53125 C 259.59375 281.253906 259.863281 281.035156 259.863281 281.035156 C 259.863281 281.035156 261.085938 280.152344 262.921875 278.824219 C 263.382812 278.496094 263.878906 278.136719 264.40625 277.757812 C 264.914062 277.351562 265.449219 276.925781 266.003906 276.484375 C 267.105469 275.597656 268.300781 274.675781 269.460938 273.710938 C 271.722656 271.710938 274.027344 269.761719 275.617188 268.140625 C 276.433594 267.355469 277.109375 266.699219 277.585938 266.242188 C 278.0625 265.78125 278.324219 265.511719 278.324219 265.511719 C 278.324219 265.511719 279.371094 264.421875 280.9375 262.789062 C 282.550781 261.195312 284.464844 258.855469 286.464844 256.59375 C 288.320312 254.207031 290.265625 251.886719 291.53125 250.007812 C 292.851562 248.160156 293.730469 246.933594 293.730469 246.933594 L 296.769531 242.363281 C 303.097656 232.496094 308.171875 221.753906 311.484375 210.4375 C 314.929688 199.152344 316.519531 187.320312 316.625 175.496094 L 316.628906 175.484375 L 316.628906 175.316406 " fill-opacity="1" fill-rule="nonzero"/></g></svg>